HIERARCHY
ROOT mixamorig:Hips
{
	OFFSET 0.000000 209.098373 0.000000
	CHANNELS 6 Xposition Yposition Zposition Xrotation Yrotation Zrotation
	JOINT mixamorig:Spine
	{
		OFFSET -0.200200 19.804703 -3.890100
		CHANNELS 6 Xposition Yposition Zposition Xrotation Yrotation Zrotation
		JOINT mixamorig:Spine1
		{
			OFFSET -0.270400 23.500305 -2.360300
			CHANNELS 6 Xposition Yposition Zposition Xrotation Yrotation Zrotation
			JOINT mixamorig:Spine2
			{
				OFFSET -0.109100 27.807587 -1.195400
				CHANNELS 6 Xposition Yposition Zposition Xrotation Yrotation Zrotation
				JOINT mixamorig:Neck
				{
					OFFSET 0.573000 31.061890 3.761700
					CHANNELS 6 Xposition Yposition Zposition Xrotation Yrotation Zrotation
					JOINT mixamorig:Head
					{
						OFFSET 1.041900 22.230988 6.513500
						CHANNELS 6 Xposition Yposition Zposition Xrotation Yrotation Zrotation
						JOINT mixamorig:HeadTop_End
						{
							OFFSET 0.153900 38.312317 10.826400
							CHANNELS 6 Xposition Yposition Zposition Xrotation Yrotation Zrotation
							End Site
							{
								OFFSET 0.000000 29.448334 0.000000
							}
						}
						JOINT mixamorig:RightEye
						{
							OFFSET -6.116900 16.475891 16.457001
							CHANNELS 6 Xposition Yposition Zposition Xrotation Yrotation Zrotation
							End Site
							{
								OFFSET 0.000000 29.448334 0.000000
							}
						}
						JOINT mixamorig:LeftEye
						{
							OFFSET 6.085500 16.736298 16.760401
							CHANNELS 6 Xposition Yposition Zposition Xrotation Yrotation Zrotation
							End Site
							{
								OFFSET 0.000000 29.448334 0.000000
							}
						}
					}
				}
				JOINT mixamorig:LeftShoulder
				{
					OFFSET 12.954100 18.894806 2.678200
					CHANNELS 6 Xposition Yposition Zposition Xrotation Yrotation Zrotation
					JOINT mixamorig:LeftArm
					{
						OFFSET 26.260923 0.774078 -4.054200
						CHANNELS 6 Xposition Yposition Zposition Xrotation Yrotation Zrotation
						JOINT mixamorig:LeftForeArm
						{
							OFFSET 55.127678 0.000000 0.000000
							CHANNELS 6 Xposition Yposition Zposition Xrotation Yrotation Zrotation
							JOINT mixamorig:LeftHand
							{
								OFFSET 52.773346 0.000000 0.000000
								CHANNELS 6 Xposition Yposition Zposition Xrotation Yrotation Zrotation
								JOINT mixamorig:LeftHandMiddle1
								{
									OFFSET 27.744553 0.000000 -0.000001
									CHANNELS 6 Xposition Yposition Zposition Xrotation Yrotation Zrotation
									JOINT mixamorig:LeftHandMiddle2
									{
										OFFSET 6.931656 0.000000 0.000000
										CHANNELS 6 Xposition Yposition Zposition Xrotation Yrotation Zrotation
										JOINT mixamorig:LeftHandMiddle3
										{
											OFFSET 6.823593 0.000000 0.000000
											CHANNELS 6 Xposition Yposition Zposition Xrotation Yrotation Zrotation
											End Site
											{
												OFFSET 7.354706 -0.109253 -0.740184
											}
										}
									}
								}
								JOINT mixamorig:LeftHandThumb1
								{
									OFFSET 11.123123 -3.291504 6.128796
									CHANNELS 6 Xposition Yposition Zposition Xrotation Yrotation Zrotation
									JOINT mixamorig:LeftHandThumb2
									{
										OFFSET 8.694336 -5.019684 5.019678
										CHANNELS 6 Xposition Yposition Zposition Xrotation Yrotation Zrotation
										JOINT mixamorig:LeftHandThumb3
										{
											OFFSET 6.936920 -4.005035 4.005031
											CHANNELS 6 Xposition Yposition Zposition Xrotation Yrotation Zrotation
											End Site
											{
												OFFSET 5.765579 -0.108337 -0.568288
											}
										}
									}
								}
								JOINT mixamorig:LeftHandIndex1
								{
									OFFSET 28.490189 -0.454712 5.152027
									CHANNELS 6 Xposition Yposition Zposition Xrotation Yrotation Zrotation
									JOINT mixamorig:LeftHandIndex2
									{
										OFFSET 7.062866 0.000000 0.000000
										CHANNELS 6 Xposition Yposition Zposition Xrotation Yrotation Zrotation
										JOINT mixamorig:LeftHandIndex3
										{
											OFFSET 6.495270 0.000000 0.000000
											CHANNELS 6 Xposition Yposition Zposition Xrotation Yrotation Zrotation
											End Site
											{
												OFFSET 6.557297 0.042389 -0.687234
											}
										}
									}
								}
								JOINT mixamorig:LeftHandRing1
								{
									OFFSET 25.484116 0.079315 -4.241013
									CHANNELS 6 Xposition Yposition Zposition Xrotation Yrotation Zrotation
									JOINT mixamorig:LeftHandRing2
									{
										OFFSET 6.309830 0.000000 0.000000
										CHANNELS 6 Xposition Yposition Zposition Xrotation Yrotation Zrotation
										JOINT mixamorig:LeftHandRing3
										{
											OFFSET 6.359528 0.000000 0.000000
											CHANNELS 6 Xposition Yposition Zposition Xrotation Yrotation Zrotation
											End Site
											{
												OFFSET 7.026703 0.253662 -0.303905
											}
										}
									}
								}
								JOINT mixamorig:LeftHandPinky1
								{
									OFFSET 21.905838 -0.440979 -8.780931
									CHANNELS 6 Xposition Yposition Zposition Xrotation Yrotation Zrotation
									JOINT mixamorig:LeftHandPinky2
									{
										OFFSET 6.536652 0.000000 0.000000
										CHANNELS 6 Xposition Yposition Zposition Xrotation Yrotation Zrotation
										JOINT mixamorig:LeftHandPinky3
										{
											OFFSET 4.149078 0.000000 0.000000
											CHANNELS 6 Xposition Yposition Zposition Xrotation Yrotation Zrotation
											End Site
											{
												OFFSET 5.537613 0.062164 -0.532511
											}
										}
									}
								}
							}
						}
					}
				}
				JOINT mixamorig:RightShoulder
				{
					OFFSET -12.637299 19.215302 2.180900
					CHANNELS 6 Xposition Yposition Zposition Xrotation Yrotation Zrotation
					JOINT mixamorig:RightArm
					{
						OFFSET -26.335392 0.460938 -5.423000
						CHANNELS 6 Xposition Yposition Zposition Xrotation Yrotation Zrotation
						JOINT mixamorig:RightForeArm
						{
							OFFSET -55.842682 0.000000 0.000000
							CHANNELS 6 Xposition Yposition Zposition Xrotation Yrotation Zrotation
							JOINT mixamorig:RightHand
							{
								OFFSET -50.313637 0.000000 0.000000
								CHANNELS 6 Xposition Yposition Zposition Xrotation Yrotation Zrotation
								JOINT mixamorig:RightHandMiddle1
								{
									OFFSET -26.065582 0.000000 0.000000
									CHANNELS 6 Xposition Yposition Zposition Xrotation Yrotation Zrotation
									JOINT mixamorig:RightHandMiddle2
									{
										OFFSET -6.159927 0.000000 0.000000
										CHANNELS 6 Xposition Yposition Zposition Xrotation Yrotation Zrotation
										JOINT mixamorig:RightHandMiddle3
										{
											OFFSET -7.279129 0.000000 0.000000
											CHANNELS 6 Xposition Yposition Zposition Xrotation Yrotation Zrotation
											End Site
											{
												OFFSET -7.458603 0.045563 -0.133469
											}
										}
									}
								}
								JOINT mixamorig:RightHandThumb1
								{
									OFFSET -9.501938 -3.930054 6.157043
									CHANNELS 6 Xposition Yposition Zposition Xrotation Yrotation Zrotation
									JOINT mixamorig:RightHandThumb2
									{
										OFFSET -8.016403 -4.628265 4.628269
										CHANNELS 6 Xposition Yposition Zposition Xrotation Yrotation Zrotation
										JOINT mixamorig:RightHandThumb3
										{
											OFFSET -6.641968 -3.834747 3.834738
											CHANNELS 6 Xposition Yposition Zposition Xrotation Yrotation Zrotation
											End Site
											{
												OFFSET -6.127075 0.113342 -0.362732
											}
										}
									}
								}
								JOINT mixamorig:RightHandIndex1
								{
									OFFSET -26.603027 -0.546387 5.106654
									CHANNELS 6 Xposition Yposition Zposition Xrotation Yrotation Zrotation
									JOINT mixamorig:RightHandIndex2
									{
										OFFSET -7.092133 0.000000 0.000000
										CHANNELS 6 Xposition Yposition Zposition Xrotation Yrotation Zrotation
										JOINT mixamorig:RightHandIndex3
										{
											OFFSET -7.414383 0.000000 0.000000
											CHANNELS 6 Xposition Yposition Zposition Xrotation Yrotation Zrotation
											End Site
											{
												OFFSET -5.518188 0.168182 -0.137220
											}
										}
									}
								}
								JOINT mixamorig:RightHandRing1
								{
									OFFSET -24.087204 0.001373 -3.983909
									CHANNELS 6 Xposition Yposition Zposition Xrotation Yrotation Zrotation
									JOINT mixamorig:RightHandRing2
									{
										OFFSET -6.857483 0.000000 0.000000
										CHANNELS 6 Xposition Yposition Zposition Xrotation Yrotation Zrotation
										JOINT mixamorig:RightHandRing3
										{
											OFFSET -6.835510 0.000000 0.000000
											CHANNELS 6 Xposition Yposition Zposition Xrotation Yrotation Zrotation
											End Site
											{
												OFFSET -6.014297 0.133209 0.130255
											}
										}
									}
								}
								JOINT mixamorig:RightHandPinky1
								{
									OFFSET -20.989380 -0.497772 -8.541121
									CHANNELS 6 Xposition Yposition Zposition Xrotation Yrotation Zrotation
									JOINT mixamorig:RightHandPinky2
									{
										OFFSET -5.939575 0.000000 0.000000
										CHANNELS 6 Xposition Yposition Zposition Xrotation Yrotation Zrotation
										JOINT mixamorig:RightHandPinky3
										{
											OFFSET -3.764755 0.000000 0.000000
											CHANNELS 6 Xposition Yposition Zposition Xrotation Yrotation Zrotation
											End Site
											{
												OFFSET -6.369995 -0.010254 -0.078470
											}
										}
									}
								}
							}
						}
					}
				}
			}
		}
	}
	JOINT mixamorig:LeftUpLeg
	{
		OFFSET 18.528200 -13.833405 2.662400
		CHANNELS 6 Xposition Yposition Zposition Xrotation Yrotation Zrotation
		JOINT mixamorig:LeftLeg
		{
			OFFSET -0.428627 -85.183052 -3.238300
			CHANNELS 6 Xposition Yposition Zposition Xrotation Yrotation Zrotation
			JOINT mixamorig:LeftFoot
			{
				OFFSET 0.428627 -85.416382 -5.126600
				CHANNELS 6 Xposition Yposition Zposition Xrotation Yrotation Zrotation
				JOINT mixamorig:LeftToeBase
				{
					OFFSET 2.692499 -21.394899 24.290701
					CHANNELS 6 Xposition Yposition Zposition Xrotation Yrotation Zrotation
					End Site
					{
						OFFSET 0.000000 0.000000 19.064795
					}
				}
			}
		}
	}
	JOINT mixamorig:RightUpLeg
	{
		OFFSET -18.436300 -14.416702 0.160500
		CHANNELS 6 Xposition Yposition Zposition Xrotation Yrotation Zrotation
		JOINT mixamorig:RightLeg
		{
			OFFSET 0.571878 -84.751007 -3.366100
			CHANNELS 6 Xposition Yposition Zposition Xrotation Yrotation Zrotation
			JOINT mixamorig:RightFoot
			{
				OFFSET -0.571878 -85.244911 -5.426400
				CHANNELS 6 Xposition Yposition Zposition Xrotation Yrotation Zrotation
				JOINT mixamorig:RightToeBase
				{
					OFFSET -3.153700 -21.491106 24.818199
					CHANNELS 6 Xposition Yposition Zposition Xrotation Yrotation Zrotation
					End Site
					{
						OFFSET 0.000000 0.000000 19.702320
					}
				}
			}
		}
	}
}
MOTION
Frames: 4
Frame Time: 0.033333
0.042417 203.684372 -0.832453 2.380714 -11.975565 -0.580655 -0.200200 19.804712 -3.890102 9.420465 2.004972 0.500671 -0.270400 23.500313 -2.360298 2.870546 4.029872 0.917350 -0.109098 27.807621 -1.195399 -9.001475 3.754921 1.727679 0.572997 31.061897 3.761698 -3.883556 2.069977 -6.982860 1.041903 22.230991 6.513500 5.912160 -0.105677 7.514149 0.153901 38.312317 10.826396 -0.000001 0.000000 -0.000000 -6.116902 16.475922 16.456991 -0.000001 0.000000 -0.000000 6.085500 16.736298 16.760395 -0.000001 0.000000 -0.000000 12.954097 18.894773 2.678202 -1.295776 0.077910 -4.827727 26.260933 0.774071 -4.054201 -3.652874 -0.069566 -73.006943 55.127731 0.000007 0.000001 -0.000035 -15.717645 -0.000223 52.773373 0.000051 0.000005 2.306659 0.165002 -5.013154 27.744551 0.000022 -0.000004 0.248930 -1.909208 -12.464995 6.931640 -0.000007 -0.000001 -0.126959 -0.878873 -17.469114 6.823591 -0.000026 -0.000005 -0.119951 -0.934118 -18.480144 11.123095 -3.291449 6.128800 8.265279 -7.734423 18.880859 8.694315 -5.019711 5.019688 5.407330 20.572714 -9.835160 6.936924 -4.005059 4.005030 1.742548 3.611557 -0.678842 28.490158 -0.454680 5.152025 0.273653 -4.246509 -3.910731 7.062887 -0.000025 0.000000 0.097418 -0.794738 -17.447660 6.495278 0.000048 0.000011 -0.022295 -0.374334 -8.071686 25.484093 0.079357 -4.241006 0.311229 -1.760782 -17.977563 6.309811 0.000011 -0.000001 -0.194381 -1.090504 -20.983243 6.359519 -0.000021 -0.000003 -0.031937 -0.974411 -17.928746 21.905844 -0.440976 -8.780931 0.622116 -0.700679 -24.132877 6.536635 -0.000061 -0.000006 -0.024663 -0.945240 -17.465354 4.149076 -0.000028 0.000006 -0.471780 -0.844750 -16.566009 -12.637296 19.215284 2.180898 -1.295769 -0.077850 4.827737 -26.335400 0.460971 -5.423001 3.909176 3.069881 67.997696 -55.842709 0.000064 0.000003 -0.000001 18.089247 0.000035 -50.313618 0.000011 0.000004 2.313889 -1.592970 -2.170143 -26.065567 -0.000039 0.000004 0.250213 1.903663 12.463720 -6.159889 -0.000011 0.000004 -0.126984 0.878930 17.470138 -7.279142 0.000028 -0.000002 -0.119946 0.934136 18.481174 -9.501945 -3.930112 6.157028 8.265288 7.734432 -18.880834 -8.016431 -4.628303 4.628265 5.407270 -20.572682 9.835168 -6.641975 -3.834760 3.834738 1.742524 -3.611591 0.678866 -26.603033 -0.546355 5.106661 0.272397 4.252691 3.917202 -7.092135 -0.000011 0.000001 0.097370 0.794941 17.452767 -7.414401 -0.000002 -0.000004 -0.022339 0.374603 8.076836 -24.087151 0.001323 -3.983916 0.310450 1.762622 17.988990 -6.857433 -0.000015 0.000003 -0.194368 1.090570 20.984686 -6.835523 0.000026 0.000004 -0.031916 0.974272 17.926171 -20.989368 -0.497778 -8.541130 0.626382 0.701979 24.132079 -5.939580 -0.000052 -0.000009 -0.024631 0.945181 17.464104 -3.764767 -0.000089 -0.000003 -0.471746 0.844616 16.562826 18.528204 -13.833400 2.662402 -20.259292 11.821832 13.655160 -0.428631 -85.183067 -3.238290 22.039265 5.137388 1.947287 0.428637 -85.416382 -5.126601 -2.779932 5.365584 -10.727783 2.692507 -21.394896 24.290699 -3.075494 -2.348372 -2.459408 -18.436298 -14.416664 0.160498 -14.875162 -8.245243 -6.767383 0.571877 -84.751007 -3.366088 23.384035 -5.213270 -1.849497 -0.571874 -85.244919 -5.426404 -10.144709 -0.501309 8.651629 -3.153698 -21.491108 24.818195 -5.415825 2.350601 2.461616 
0.042417 203.684372 -0.832453 2.380714 -11.975565 -0.580655 -0.200200 19.804712 -3.890102 9.420465 2.004972 0.500671 -0.270400 23.500313 -2.360298 2.870546 4.029872 0.917350 -0.109098 27.807621 -1.195399 -9.001475 3.754921 1.727679 0.572997 31.061897 3.761698 -3.883556 2.069977 -6.982860 1.041903 22.230991 6.513500 5.912160 -0.105677 7.514149 0.153901 38.312317 10.826396 -0.000001 0.000000 -0.000000 -6.116902 16.475922 16.456991 -0.000001 0.000000 -0.000000 6.085500 16.736298 16.760395 -0.000001 0.000000 -0.000000 12.954097 18.894773 2.678202 -1.295776 0.077910 -4.827727 26.260933 0.774071 -4.054201 -3.652874 -0.069566 -73.006943 55.127731 0.000007 0.000001 -0.000035 -15.717645 -0.000223 52.773373 0.000051 0.000005 2.306659 0.165002 -5.013154 27.744551 0.000022 -0.000004 0.248930 -1.909208 -12.464995 6.931640 -0.000007 -0.000001 -0.126959 -0.878873 -17.469114 6.823591 -0.000026 -0.000005 -0.119951 -0.934118 -18.480144 11.123095 -3.291449 6.128800 8.265279 -7.734423 18.880859 8.694315 -5.019711 5.019688 5.407330 20.572714 -9.835160 6.936924 -4.005059 4.005030 1.742548 3.611557 -0.678842 28.490158 -0.454680 5.152025 0.273653 -4.246509 -3.910731 7.062887 -0.000025 0.000000 0.097418 -0.794738 -17.447660 6.495278 0.000048 0.000011 -0.022295 -0.374334 -8.071686 25.484093 0.079357 -4.241006 0.311229 -1.760782 -17.977563 6.309811 0.000011 -0.000001 -0.194381 -1.090504 -20.983243 6.359519 -0.000021 -0.000003 -0.031937 -0.974411 -17.928746 21.905844 -0.440976 -8.780931 0.622116 -0.700679 -24.132877 6.536635 -0.000061 -0.000006 -0.024663 -0.945240 -17.465354 4.149076 -0.000028 0.000006 -0.471780 -0.844750 -16.566009 -12.637296 19.215284 2.180898 -1.295769 -0.077850 4.827737 -26.335400 0.460971 -5.423001 3.909176 3.069881 67.997696 -55.842709 0.000064 0.000003 -0.000001 18.089247 0.000035 -50.313618 0.000011 0.000004 2.313889 -1.592970 -2.170143 -26.065567 -0.000039 0.000004 0.250213 1.903663 12.463720 -6.159889 -0.000011 0.000004 -0.126984 0.878930 17.470138 -7.279142 0.000028 -0.000002 -0.119946 0.934136 18.481174 -9.501945 -3.930112 6.157028 8.265288 7.734432 -18.880834 -8.016431 -4.628303 4.628265 5.407270 -20.572682 9.835168 -6.641975 -3.834760 3.834738 1.742524 -3.611591 0.678866 -26.603033 -0.546355 5.106661 0.272397 4.252691 3.917202 -7.092135 -0.000011 0.000001 0.097370 0.794941 17.452767 -7.414401 -0.000002 -0.000004 -0.022339 0.374603 8.076836 -24.087151 0.001323 -3.983916 0.310450 1.762622 17.988990 -6.857433 -0.000015 0.000003 -0.194368 1.090570 20.984686 -6.835523 0.000026 0.000004 -0.031916 0.974272 17.926171 -20.989368 -0.497778 -8.541130 0.626382 0.701979 24.132079 -5.939580 -0.000052 -0.000009 -0.024631 0.945181 17.464104 -3.764767 -0.000089 -0.000003 -0.471746 0.844616 16.562826 18.528204 -13.833400 2.662402 -20.259292 11.821832 13.655160 -0.428631 -85.183067 -3.238290 22.039265 5.137388 1.947287 0.428637 -85.416382 -5.126601 -2.779932 5.365584 -10.727783 2.692507 -21.394896 24.290699 -3.075494 -2.348372 -2.459408 -18.436298 -14.416664 0.160498 -14.875162 -8.245243 -6.767383 0.571877 -84.751007 -3.366088 23.384035 -5.213270 -1.849497 -0.571874 -85.244919 -5.426404 -10.144709 -0.501309 8.651629 -3.153698 -21.491108 24.818195 -5.415825 2.350601 2.461616 
-0.063714 203.877563 -0.746838 2.899223 -11.997600 -0.340280 -0.200200 19.804701 -3.890103 9.384377 1.987821 0.486724 -0.270400 23.500288 -2.360297 2.854517 3.962755 0.879208 -0.109099 27.807545 -1.195391 -9.016286 3.674783 1.676082 0.572999 31.061888 3.761701 -3.706339 2.232906 -6.859989 1.041901 22.230976 6.513499 5.637903 0.074517 7.286818 0.153900 38.312317 10.826395 -0.000000 -0.000000 -0.000000 -6.116899 16.475861 16.456993 -0.000000 -0.000000 -0.000000 6.085500 16.736298 16.760399 -0.000000 -0.000000 -0.000000 12.954101 18.894787 2.678202 -1.198667 0.614520 -4.902615 26.260927 0.774077 -4.054202 -2.446418 0.699361 -72.223745 55.127705 0.000027 0.000007 0.769972 -14.569973 -0.238245 52.773361 0.000021 0.000000 2.415909 -2.042225 -4.211655 27.744570 -0.000025 -0.000000 0.241735 -1.940663 -13.282004 6.931661 -0.000036 -0.000012 -0.139740 -0.918556 -18.285699 6.823572 -0.000021 -0.000001 -0.133526 -0.973891 -19.296710 11.123109 -3.291495 6.128798 8.256318 -7.858423 18.850617 8.694353 -5.019715 5.019674 5.458783 20.634121 -9.850362 6.936928 -4.005049 4.005042 1.937508 3.935910 -0.647904 28.490183 -0.454704 5.152030 0.271854 -4.270983 -4.504485 7.062834 -0.000018 -0.000002 0.089014 -0.821072 -18.041422 6.495267 0.000039 0.000007 -0.026339 -0.401681 -8.665362 25.484127 0.079333 -4.241007 0.297973 -1.806428 -18.950997 6.309791 -0.000036 -0.000000 -0.213300 -1.138678 -21.956458 6.359567 -0.000022 -0.000004 -0.048843 -1.025292 -18.901773 21.905861 -0.440983 -8.780924 0.604788 -0.748070 -25.106003 6.536687 -0.000085 -0.000007 -0.041122 -0.996152 -18.438371 4.149082 0.000008 0.000006 -0.485714 -0.890145 -17.539229 -12.637297 19.215330 2.180900 -1.271074 -0.212460 4.654490 -26.335447 0.460927 -5.422998 5.219200 2.903473 67.877436 -55.842663 0.000009 0.000008 -0.372651 16.578199 0.622510 -50.313652 -0.000025 -0.000003 2.777471 -0.498617 -3.417945 -26.065624 -0.000015 -0.000004 0.241551 1.944605 13.365394 -6.159885 -0.000009 0.000005 -0.141128 0.922718 18.371578 -7.279142 0.000026 -0.000006 -0.134974 0.978032 19.382602 -9.501979 -3.930109 6.157029 8.255504 7.871300 -18.847547 -8.016397 -4.628275 4.628260 5.463942 -20.640601 9.851949 -6.641953 -3.834752 3.834734 1.955869 -3.970414 0.643319 -26.603079 -0.546350 5.106653 0.176218 4.135959 4.649322 -7.092127 0.000021 0.000001 0.088059 0.823998 18.108095 -7.414371 -0.000009 0.000003 -0.026805 0.404769 8.732054 -24.087210 0.001329 -3.983920 0.035239 1.731168 19.012315 -6.857459 0.000023 -0.000001 -0.215336 1.143776 22.058965 -6.835564 0.000033 0.000005 -0.050633 1.030481 19.000372 -20.989384 -0.497802 -8.541135 0.321222 0.729351 25.183585 -5.939583 -0.000025 -0.000003 -0.042774 1.001163 18.538293 -3.764749 -0.000043 -0.000002 -0.487121 0.894491 17.637259 18.528196 -13.833389 2.662413 -20.350115 11.863226 13.456905 -0.428632 -85.183029 -3.238293 21.302595 5.216815 1.900170 0.428634 -85.416405 -5.126600 -2.411724 5.372652 -10.690224 2.692502 -21.394897 24.290699 -3.075521 -2.348394 -2.459411 -18.436296 -14.416663 0.160498 -15.176819 -8.195104 -6.847093 0.571881 -84.751015 -3.366096 22.931057 -5.232867 -1.813192 -0.571873 -85.244896 -5.426405 -9.913574 -0.489022 8.592422 -3.153700 -21.491106 24.818192 -5.415824 2.350597 2.461623 
-0.396286 204.002182 -0.615210 3.983994 -12.034884 0.055332 -0.200200 19.804697 -3.890103 9.315709 1.983692 0.454169 -0.270401 23.500311 -2.360303 2.990072 3.765732 0.798457 -0.109099 27.807585 -1.195399 -8.876560 3.389645 1.553838 0.573002 31.061926 3.761700 -2.893327 2.486803 -6.418827 1.041895 22.231022 6.513498 3.874027 0.476236 6.739962 0.153896 38.312317 10.826400 -0.000000 0.000000 0.000001 -6.116902 16.475952 16.456997 -0.000000 0.000000 0.000001 6.085497 16.736328 16.760401 -0.000000 0.000000 0.000001 12.954099 18.894789 2.678204 -1.004468 1.127395 -5.361904 26.260960 0.774046 -4.054191 0.204912 0.913261 -70.691331 55.127701 0.000015 0.000003 2.155839 -13.954750 -1.066809 52.773357 0.000049 0.000007 2.417308 -1.300082 -3.142899 27.744539 -0.000031 0.000000 0.198433 -2.110488 -16.892284 6.931667 0.000006 -0.000003 -0.202961 -1.091559 -21.895143 6.823553 0.000019 0.000007 -0.200354 -1.147228 -22.906190 11.123091 -3.291493 6.128799 8.202933 -8.407673 18.712691 8.694329 -5.019711 5.019677 5.686500 20.905266 -9.918072 6.936902 -4.005064 4.005028 2.764131 5.380997 -0.594934 28.490183 -0.454712 5.152029 0.259955 -4.371022 -7.132579 7.062910 -0.000074 -0.000003 0.048522 -0.936385 -20.668494 6.495269 0.000035 0.000004 -0.047518 -0.522090 -11.291991 25.484093 0.079324 -4.241004 0.219965 -2.012063 -23.250143 6.309806 -0.000024 0.000002 -0.306552 -1.347408 -26.254605 6.359520 -0.000022 -0.000005 -0.133882 -1.246493 -23.199130 21.905827 -0.440939 -8.780927 0.501440 -0.959957 -29.403268 6.536650 -0.000060 -0.000005 -0.123968 -1.216639 -22.735726 4.149086 -0.000003 0.000000 -0.556258 -1.086789 -21.837563 -12.637301 19.215330 2.180900 -1.049650 0.030171 5.300843 -26.335440 0.460923 -5.422999 6.894257 1.262704 66.324395 -55.842678 0.000037 0.000009 2.967469 15.346120 1.625776 -50.313644 -0.000001 -0.000001 2.549376 -0.831525 -5.697962 -26.065544 -0.000009 -0.000003 0.194257 2.127437 17.218719 -6.159897 -0.000012 0.000000 -0.209265 1.107101 22.223767 -7.279135 -0.000009 -0.000005 -0.206963 1.162766 23.234849 -9.501902 -3.930090 6.157028 8.198780 8.457944 -18.700863 -8.016416 -4.628325 4.628262 5.706936 -20.930090 9.924407 -6.641972 -3.834728 3.834735 2.832997 -5.514685 0.591455 -26.603012 -0.546368 5.106655 -0.126551 3.604187 7.770754 -7.092086 0.000025 0.000000 0.044518 0.946941 20.911640 -7.414404 -0.000002 0.000000 -0.049756 0.533202 11.535121 -24.087128 0.001322 -3.983918 -1.050433 1.349974 23.383752 -6.857409 0.000010 0.000001 -0.315839 1.366132 26.645635 -6.835562 0.000023 0.000003 -0.142420 1.266193 23.586716 -20.989338 -0.497769 -8.541132 -0.934987 0.525604 29.700408 -5.939570 -0.000110 -0.000002 -0.132095 1.235889 23.124468 -3.764679 -0.000052 -0.000003 -0.563203 1.103845 22.224749 18.528198 -13.833393 2.662404 -21.000480 11.798898 13.317749 -0.428635 -85.183067 -3.238283 20.592846 5.345442 1.784782 0.428629 -85.416389 -5.126600 -2.013947 5.426210 -10.697173 2.692497 -21.394901 24.290703 -3.075518 -2.348391 -2.459412 -18.436302 -14.416682 0.160494 -16.169233 -8.069721 -6.904063 0.571877 -84.751015 -3.366093 22.737309 -5.274973 -1.771853 -0.571875 -85.244919 -5.426402 -9.809613 -0.506737 8.475785 -3.153694 -21.491108 24.818197 -5.415823 2.350591 2.461623 
